<?xml version="1.0" encoding="UTF-8"?>
<svg width="604" height="445" viewBox="0 0 604.3 445.17" xmlns="http://www.w3.org/2000/svg" xmlns:xlink="http://www.w3.org/1999/xlink"><defs><style>.e{fill:url(#d);fill-rule:evenodd;}</style><radialGradient id="d" cx="46.8" cy="116.99" fx="46.8" fy="116.99" r="818.62" gradientTransform="translate(9.88 551.16) scale(1 -1)" gradientUnits="userSpaceOnUse"><stop offset="0" stop-color="#0087ff"/><stop offset=".33" stop-color="#24e693"/><stop offset=".65" stop-color="#ffcf00"/><stop offset="1" stop-color="#fff"/></radialGradient></defs><g id="c"><path class="e" d="M582.31,295.1c-66.27,42.96-172.21,88.27-218.64,104.88,47.48-10.93,116.23-27.73,138.23-39.14,22-11.4,43.96-25.54,80.41-65.74h0ZM216.75,382.41c24.83-37.66,86.69-134.27,92.37-166.25-37.05,3.38-80.25,21.7-115.72,67.06-35.48,45.37-40.03,118.49-21.06,133.07,18.99,14.59,48.91,2.52,48.91,2.52,0,0-33.39,16.57-57.12,5.34-41.88-19.82-43.22-100.25-2.83-160.75,40.39-60.52,106.78-85.19,163.99-91.96,82.34-9.75-56.88,165.98-108.58,210.97h.02ZM246.88,413.86c107.21-64.12,218.26-124.58,346.29-245.17-63.11,131.97-101.78,143.43-136.63,160.7-34.86,17.27-133.45,59.86-209.66,84.47h0ZM379.17,82.89c-157.01,55.7-194.38,84.7-203.54,100.31,54.15-29.92,109.31-48.31,178.26-67.52,68.95-19.21,144.2-33.07,144.2-33.07,0,0-40.74,69.61-99.59,138.9-58.85,69.28-166.23,178.31-166.23,178.31,0,0,107.27-64.07,205.76-156.3C579,111.5,604.3,19.21,604.3,19.21c0,0-68.11,7.98-225.12,63.68h-.01ZM0,189.79s23.5-49.72,48.29-71c16.62-14.26,45.96-31.13,119.79-54.91S403.24,0,403.24,0c0,0-19.05,31.22-59.39,46.89-34.5,13.44-76.14,29.63-111.93,43.62-40.18,15.7-66.86,32.05-97.69,69.84-38.43,47.08-59.67,81.2-72.52,118.9-12.83,37.7-18.03,79.03-14.59,112.06,6.59,63.26,47.19,50.6,47.19,50.6,0,0-45.35,20.59-70.58-41.62-15.88-39.16-13.8-103.12,5.48-152.74,19.17-49.34,51.48-96.76,51.48-96.76L.01,189.78h-.01Z"/></g></svg>